<svg width="192" height="32" viewBox="0 0 192 32" fill="none" xmlns="http://www.w3.org/2000/svg">
<path d="M38.0487 24.2532C36.8126 24.2532 35.7481 23.9891 34.8551 23.4609C33.9676 22.9273 33.2815 22.1786 32.7969 21.2148C32.3177 20.2456 32.0781 19.1103 32.0781 17.8089C32.0781 16.5239 32.3177 15.3913 32.7969 14.4112C33.2815 13.4311 33.9567 12.6661 34.8224 12.1161C35.6937 11.5662 36.7119 11.2912 37.8771 11.2912C38.585 11.2912 39.2711 11.4083 39.9354 11.6424C40.5997 11.8765 41.1959 12.2441 41.7241 12.745C42.2522 13.246 42.6688 13.8967 42.9737 14.6971C43.2786 15.4921 43.4311 16.4586 43.4311 17.5966V18.4624H33.4585V16.6328H41.038C41.038 15.9903 40.9073 15.4213 40.646 14.9258C40.3846 14.4248 40.017 14.0301 39.5433 13.7415C39.075 13.4529 38.5251 13.3086 37.8935 13.3086C37.2074 13.3086 36.6084 13.4774 36.0966 13.815C35.5902 14.1471 35.1982 14.5827 34.9205 15.1218C34.6482 15.6554 34.5121 16.2353 34.5121 16.8615V18.2908C34.5121 19.1294 34.6591 19.8427 34.9531 20.4308C35.2526 21.0188 35.6692 21.468 36.2028 21.7784C36.7364 22.0833 37.3598 22.2358 38.0732 22.2358C38.536 22.2358 38.958 22.1705 39.3391 22.0398C39.7203 21.9036 40.0497 21.7022 40.3274 21.4354C40.6051 21.1686 40.8175 20.8391 40.9645 20.4471L43.2759 20.8636C43.0908 21.5443 42.7586 22.1405 42.2795 22.6523C41.8058 23.1587 41.2095 23.5535 40.4908 23.8366C39.7775 24.1143 38.9634 24.2532 38.0487 24.2532ZM44.1407 24V11.4545H46.4848V13.4964H46.64C46.9014 12.8049 47.3288 12.2659 47.9223 11.8793C48.5158 11.4872 49.2264 11.2912 50.0541 11.2912C50.8926 11.2912 51.595 11.4872 52.1613 11.8793C52.733 12.2713 53.155 12.8104 53.4273 13.4964H53.558C53.8575 12.8267 54.3339 12.2931 54.9873 11.8956C55.6407 11.4927 56.4194 11.2912 57.3232 11.2912C58.4613 11.2912 59.3896 11.6478 60.1084 12.3612C60.8326 13.0745 61.1947 14.1499 61.1947 15.5874V24H58.7526V15.8161C58.7526 14.9666 58.5212 14.3513 58.0583 13.9702C57.5955 13.589 57.0428 13.3984 56.4003 13.3984C55.6053 13.3984 54.9873 13.6435 54.5463 14.1335C54.1052 14.6181 53.8847 15.2416 53.8847 16.0039V24H51.4507V15.6609C51.4507 14.9802 51.2384 14.433 50.8137 14.0192C50.3889 13.6054 49.8363 13.3984 49.1556 13.3984C48.6928 13.3984 48.2654 13.521 47.8733 13.766C47.4867 14.0056 47.1736 14.3404 46.934 14.7706C46.6999 15.2008 46.5828 15.699 46.5828 16.2653V24H44.1407ZM62.6639 24V7.27273H65.106V13.4883H65.253C65.3946 13.2269 65.5988 12.9247 65.8656 12.5817C66.1324 12.2386 66.5027 11.9392 66.9764 11.6832C67.4501 11.4219 68.0763 11.2912 68.8549 11.2912C69.8677 11.2912 70.7716 11.5471 71.5666 12.0589C72.3616 12.5708 72.985 13.3086 73.437 14.2724C73.8944 15.2362 74.123 16.396 74.123 17.7518C74.123 19.1076 73.8971 20.2701 73.4451 21.2393C72.9932 22.2031 72.3725 22.9464 71.5829 23.4691C70.7934 23.9864 69.8922 24.245 68.8794 24.245C68.1171 24.245 67.4937 24.1171 67.0091 23.8612C66.5299 23.6052 66.1542 23.3058 65.8819 22.9627C65.6097 22.6197 65.4 22.3147 65.253 22.0479H65.0488V24H62.6639ZM65.057 17.7273C65.057 18.6094 65.185 19.3826 65.4409 20.0469C65.6968 20.7112 66.0671 21.2312 66.5517 21.6069C67.0363 21.9772 67.6298 22.1623 68.3322 22.1623C69.0618 22.1623 69.6717 21.969 70.1618 21.5824C70.6518 21.1903 71.0221 20.6594 71.2725 19.9897C71.5285 19.32 71.6564 18.5658 71.6564 17.7273C71.6564 16.8996 71.5312 16.1564 71.2807 15.4975C71.0357 14.8387 70.6654 14.3187 70.1699 13.9375C69.6799 13.5563 69.0673 13.3658 68.3322 13.3658C67.6243 13.3658 67.0254 13.5482 66.5353 13.913C66.0507 14.2778 65.6832 14.7869 65.4327 15.4403C65.1822 16.0937 65.057 16.8561 65.057 17.7273ZM82.8124 18.7972V11.4545H85.2627V24H82.8614V21.8274H82.7307C82.4421 22.4972 81.9793 23.0553 81.3422 23.5018C80.7106 23.9428 79.9238 24.1634 78.9818 24.1634C78.1759 24.1634 77.4626 23.9864 76.8419 23.6325C76.2266 23.2731 75.742 22.7422 75.3881 22.0398C75.0396 21.3374 74.8653 20.4689 74.8653 19.4343V11.4545H77.3074V19.1403C77.3074 19.9951 77.5443 20.6758 78.018 21.1822C78.4917 21.6886 79.107 21.9418 79.8639 21.9418C80.3213 21.9418 80.776 21.8274 81.2279 21.5987C81.6853 21.37 82.0637 21.0243 82.3632 20.5614C82.6681 20.0986 82.8179 19.5105 82.8124 18.7972ZM91.8285 24.2532C90.6142 24.2532 89.5688 23.9782 88.6921 23.4283C87.8209 22.8729 87.1512 22.1078 86.6829 21.1332C86.2146 20.1585 85.9805 19.0423 85.9805 17.7844C85.9805 16.5103 86.2201 15.3859 86.6992 14.4112C87.1784 13.4311 87.8536 12.6661 88.7248 12.1161C89.596 11.5662 90.6224 11.2912 91.804 11.2912C92.7569 11.2912 93.6063 11.4682 94.3523 11.8221C95.0982 12.1706 95.6999 12.6606 96.1573 13.2923C96.6201 13.9239 96.8951 14.6617 96.9822 15.5057H94.6055C94.4748 14.9176 94.1753 14.4112 93.707 13.9865C93.2442 13.5618 92.6235 13.3494 91.8448 13.3494C91.1642 13.3494 90.5679 13.5291 90.0561 13.8885C89.5497 14.2424 89.1549 14.7488 88.8718 15.4077C88.5887 16.0611 88.4471 16.8343 88.4471 17.7273C88.4471 18.642 88.5859 19.4316 88.8636 20.0959C89.1413 20.7602 89.5334 21.2747 90.0398 21.6396C90.5516 22.0044 91.1533 22.1868 91.8448 22.1868C92.3076 22.1868 92.7269 22.1024 93.1026 21.9336C93.4838 21.7594 93.8023 21.5116 94.0582 21.1903C94.3196 20.8691 94.502 20.4825 94.6055 20.0305H96.9822C96.8951 20.8419 96.631 21.5661 96.19 22.2031C95.7489 22.8402 95.1581 23.3411 94.4176 23.706C93.6825 24.0708 92.8195 24.2532 91.8285 24.2532ZM99.8399 19.7447L99.8236 16.7635H100.248L105.247 11.4545H108.171L102.47 17.4986H102.086L99.8399 19.7447ZM97.5938 24V7.27273H100.036V24H97.5938ZM105.516 24L101.024 18.0376L102.707 16.3306L108.514 24H105.516ZM113.287 24.2532C112.051 24.2532 110.986 23.9891 110.093 23.4609C109.206 22.9273 108.52 22.1786 108.035 21.2148C107.556 20.2456 107.316 19.1103 107.316 17.8089C107.316 16.5239 107.556 15.3913 108.035 14.4112C108.52 13.4311 109.195 12.6661 110.061 12.1161C110.932 11.5662 111.95 11.2912 113.115 11.2912C113.823 11.2912 114.509 11.4083 115.174 11.6424C115.838 11.8765 116.434 12.2441 116.962 12.745C117.491 13.246 117.907 13.8967 118.212 14.6971C118.517 15.4921 118.669 16.4586 118.669 17.5966V18.4624H108.697V16.6328H116.276C116.276 15.9903 116.146 15.4213 115.884 14.9258C115.623 14.4248 115.255 14.0301 114.782 13.7415C114.313 13.4529 113.763 13.3086 113.132 13.3086C112.446 13.3086 111.847 13.4774 111.335 13.815C110.828 14.1471 110.436 14.5827 110.159 15.1218C109.886 15.6554 109.75 16.2353 109.75 16.8615V18.2908C109.75 19.1294 109.897 19.8427 110.191 20.4308C110.491 21.0188 110.907 21.468 111.441 21.7784C111.975 22.0833 112.598 22.2358 113.311 22.2358C113.774 22.2358 114.196 22.1705 114.577 22.0398C114.959 21.9036 115.288 21.7022 115.566 21.4354C115.843 21.1686 116.056 20.8391 116.203 20.4471L118.514 20.8636C118.329 21.5443 117.997 22.1405 117.518 22.6523C117.044 23.1587 116.448 23.5535 115.729 23.8366C115.016 24.1143 114.202 24.2532 113.287 24.2532ZM125.235 11.4545V13.4148H118.383V11.4545H125.235ZM120.22 8.44886H122.662V20.3164C122.662 20.7901 122.733 21.1468 122.875 21.3864C123.016 21.6205 123.199 21.7811 123.422 21.8683C123.651 21.9499 123.898 21.9908 124.165 21.9908C124.361 21.9908 124.533 21.9772 124.68 21.9499C124.827 21.9227 124.941 21.9009 125.023 21.8846L125.464 23.902C125.322 23.9564 125.121 24.0109 124.859 24.0653C124.598 24.1252 124.271 24.1579 123.879 24.1634C123.237 24.1742 122.638 24.0599 122.082 23.8203C121.527 23.5807 121.078 23.2105 120.735 22.7095C120.392 22.2086 120.22 21.5797 120.22 20.8228V8.44886Z" fill="#FAFAFA"/>
<path d="M23.5 26C23.5 27.933 19.5825 29.5 14.75 29.5C9.91751 29.5 6 27.933 6 26C6 24.067 9.91751 22.5 14.75 22.5C19.5825 22.5 23.5 24.067 23.5 26Z" fill="black"/>
<path fill-rule="evenodd" clip-rule="evenodd" d="M26.5601 11.3621C26.5888 11.2956 26.6108 11.2269 26.6259 11.1562C26.9703 9.53555 23.5272 7.43053 18.9353 6.45451C14.3435 5.47848 10.3418 6.00105 9.99736 7.6217C9.98232 7.69244 9.9745 7.7641 9.97368 7.83654L8.42412 21.8962C8.37354 22.3551 8.47766 22.8247 8.80354 23.1518C9.69099 24.0424 11.6086 25.344 14.7771 26.0175C17.9457 26.691 20.2269 26.2819 21.3998 25.8292C21.8306 25.663 22.1167 25.2763 22.2572 24.8365L26.5601 11.3621ZM17.6879 12.3234C24.0015 13.6654 26.0944 12.3718 26.5452 11.3952C25.8723 12.8262 22.0459 13.2497 17.6879 12.3234ZM17.6879 12.3234C13.3299 11.3971 10.0066 9.45386 9.97385 7.8729C9.98856 8.94845 11.3745 10.9814 17.6879 12.3234Z" fill="#0064D2"/>
<path fill-rule="evenodd" clip-rule="evenodd" d="M26.1367 11.0522C26.116 11.1496 26.0746 11.2411 26.0141 11.3269C20.758 8.68747 15.4132 8.21203 12.4356 9.8861C11.1493 9.1558 10.349 8.37165 10.4863 7.72564C10.7734 6.3751 15.0498 6.13978 18.8313 6.94357C22.6128 7.74735 26.4238 9.70169 26.1367 11.0522ZM18.953 24.063L22.6281 13.4222C24.7657 13.3873 25.6205 12.7843 25.8669 12.221L21.9348 24.3815C21.7935 24.8184 21.5087 25.2022 21.0791 25.3644C19.9651 25.7851 17.8319 26.1556 14.8808 25.5283C12.2498 24.9691 10.5353 23.9498 9.59438 23.1419C10.5732 23.4943 11.6443 23.8181 12.7481 24.0527C16.0738 24.7596 18.2704 24.3541 18.953 24.063ZM25.9286 12.0303L25.8669 12.221C25.8951 12.1566 25.9153 12.0928 25.9286 12.0303Z" fill="#0054C9"/>
<path fill-rule="evenodd" clip-rule="evenodd" d="M10.8887 7.77571C10.9169 7.7097 11.0094 7.5751 11.314 7.41422C11.6797 7.22101 12.24 7.0548 12.9902 6.95683C14.4822 6.76199 16.525 6.86232 18.7483 7.33489C20.9716 7.80746 22.8786 8.5467 24.1624 9.33154C24.8079 9.72621 25.2521 10.1059 25.5077 10.4312C25.719 10.7001 25.7498 10.8603 25.7492 10.9329C25.7176 11.0035 25.6524 11.1124 25.5206 11.2344C25.465 11.2748 25.3957 11.3182 25.3094 11.3638C24.9437 11.557 24.3835 11.7232 23.6332 11.8212C22.1412 12.016 20.0984 11.9157 17.8751 11.4431C15.6518 10.9705 13.7448 10.2313 12.461 9.44647C11.8155 9.0518 11.3713 8.6721 11.1157 8.34682C11.0353 8.24451 10.9811 8.15793 10.9447 8.08594C10.8979 7.9523 10.8877 7.84704 10.8887 7.77571ZM9.07437 7.78167C9.07836 7.6677 9.09219 7.55192 9.11712 7.43463C9.2806 6.66552 9.85418 6.14961 10.4733 5.82261C11.0982 5.49253 11.89 5.28523 12.7571 5.17198C14.5001 4.94438 16.754 5.07077 19.1226 5.57423C21.4911 6.07768 23.6016 6.87897 25.1013 7.7958C25.8474 8.25198 26.4864 8.7634 26.9231 9.31912C27.3556 9.86966 27.6698 10.5743 27.5063 11.3434C27.4814 11.4607 27.4469 11.5721 27.4042 11.6778L23.1146 25.1103C22.9187 25.7237 22.4827 26.3761 21.724 26.6689C20.3739 27.1899 17.9138 27.6043 14.5901 26.8978C11.2664 26.1914 9.18751 24.8121 8.1661 23.7871C7.59206 23.211 7.45908 22.4377 7.52962 21.7976L7.70728 20.1856C6.86211 20.0819 6.024 19.7889 5.46416 19.1538C4.40603 17.9533 4.76175 16.2344 5.45283 14.7794C6.1418 13.3288 7.33481 11.7463 8.80101 10.262L9.07437 7.78167ZM10.7175 19.9698C10.3124 20.0608 9.91092 20.1297 9.51945 20.1742L9.31879 21.9948C9.28818 22.2725 9.36344 22.4386 9.44116 22.5166C10.1946 23.2727 11.9509 24.4967 14.9643 25.1372C17.9777 25.7777 20.08 25.3739 21.0759 24.9896C21.1786 24.95 21.3149 24.8289 21.3999 24.5627L24.9329 13.4993C24.9004 13.5084 24.8676 13.5172 24.8344 13.5259C23.3017 13.9271 20.9878 13.945 17.5008 13.2038C14.0167 12.4632 11.909 11.5173 10.6708 10.5333C10.6432 10.5114 10.616 10.4894 10.5893 10.4674L9.72274 18.3297C9.91734 18.2983 10.1178 18.2596 10.3234 18.2135C11.6478 17.9163 13.0978 17.3274 14.3989 16.49C14.3535 16.241 14.355 15.9791 14.4108 15.7162C14.6405 14.6358 15.7025 13.9461 16.783 14.1758C17.8634 14.4054 18.5531 15.4674 18.3234 16.5479C18.0938 17.6283 17.0318 18.318 15.9513 18.0884C15.7872 18.0535 15.6321 17.9994 15.4879 17.9289C13.9672 18.9287 12.272 19.621 10.7175 19.9698ZM6.81448 17.9635C6.96271 18.1317 7.29322 18.318 7.90449 18.3963L8.4582 13.3723C7.86855 14.1357 7.39981 14.8757 7.07875 15.5516C6.4258 16.9264 6.54311 17.6557 6.81448 17.9635Z" fill="#FAFAFA"/>
</svg>
